<?xml version="1.0" standalone="no"?>
<!DOCTYPE svg PUBLIC "-//W3C//DTD SVG 20010904//EN"
 "http://www.w3.org/TR/2001/REC-SVG-20010904/DTD/svg10.dtd">
<svg version="1.0" xmlns="http://www.w3.org/2000/svg"
 width="700.000000pt" height="700.000000pt" viewBox="0 0 700.000000 700.000000"
 preserveAspectRatio="xMidYMid meet">
<metadata>
Created by potrace 1.14, written by Peter Selinger 2001-2017
</metadata>
<g transform="translate(0.000000,700.000000) scale(0.100000,-0.100000)"
fill="#000000" stroke="none">
<path d="M3278 6995 c-1 -1 -41 -5 -88 -9 -97 -8 -98 -8 -325 -42 -16 -3 -37
-7 -45 -9 -8 -2 -26 -6 -40 -9 -126 -22 -473 -126 -575 -171 -16 -7 -64 -28
-105 -45 -280 -120 -596 -315 -849 -525 -103 -85 -324 -302 -406 -399 -347
-407 -599 -890 -735 -1411 -33 -127 -73 -342 -86 -460 -26 -247 -26 -675 1
-826 2 -13 7 -44 9 -69 13 -119 32 -217 77 -395 134 -530 399 -1030 772 -1452
96 -108 261 -270 347 -339 19 -16 42 -35 50 -43 38 -36 249 -188 351 -252 121
-76 352 -199 459 -244 36 -15 83 -36 105 -45 87 -38 383 -133 454 -145 19 -3
37 -8 41 -10 7 -4 13 -6 135 -29 100 -19 127 -24 184 -32 25 -3 57 -7 70 -10
166 -25 683 -25 842 1 13 2 47 6 74 10 28 3 59 8 70 10 21 5 59 12 115 21 69
11 207 46 324 80 551 165 1061 467 1461 868 239 239 426 483 576 751 25 44 50
89 57 100 22 39 92 186 118 248 87 206 178 494 210 667 2 14 7 36 10 50 3 14
7 37 9 52 2 15 8 53 14 85 5 32 13 85 16 118 4 33 9 71 11 85 9 47 11 525 4
605 -13 130 -21 202 -25 227 -3 13 -8 43 -11 68 -3 25 -8 53 -10 62 -3 10 -7
30 -10 45 -12 72 -49 220 -85 341 -207 690 -645 1325 -1215 1759 -97 74 -253
183 -261 183 -3 0 -30 16 -59 35 -29 19 -57 35 -63 35 -6 0 -11 5 -11 10 0 6
-5 10 -10 10 -6 0 -41 17 -78 38 -283 160 -742 314 -1092 368 -25 3 -54 8 -65
10 -10 2 -47 6 -81 10 -33 3 -74 8 -90 10 -33 5 -540 14 -546 9z"/>
</g>
</svg>
